<svg width="375" height="577" viewBox="0 0 375 577" fill="none" xmlns="http://www.w3.org/2000/svg">
<path d="M375.542 572.293C375.542 572.293 348.972 576.61 315.384 569.792C288.643 564.363 265.171 546.878 238.83 539.413C229.916 536.925 220.902 535.002 211.687 534.324C182.642 532.062 152.729 543.748 125.888 555.284C96.8114 572.793 71.2444 579.296 50.6905 576.295C34.1472 576.295 18.8973 567.664 9.5828 565.289C8.08046 564.498 1.56016 560.078 0.0578251 559.286C-0.142487 442.907 0.258137 173.833 0.0578251 0C125.353 0 250.648 0 375.943 0C376.244 182.768 375.242 450.033 375.542 572.293Z" fill="#F1F1F1"/>
</svg>
